<svg width="22" height="22" viewBox="0 0 22 22" fill="none" xmlns="http://www.w3.org/2000/svg">
<path d="M8.24996 4.58355C8.3706 4.58285 8.49019 4.60598 8.60188 4.65159C8.71356 4.69721 8.81514 4.76443 8.9008 4.84939L14.4008 10.3494C14.5715 10.5211 14.6674 10.7535 14.6674 10.9956C14.6674 11.2378 14.5715 11.4701 14.4008 11.6419L8.9008 17.1419C8.72544 17.2921 8.49987 17.3705 8.26917 17.3616C8.03846 17.3527 7.81962 17.2571 7.65637 17.0938C7.49311 16.9306 7.39747 16.7117 7.38856 16.481C7.37965 16.2503 7.45812 16.0247 7.6083 15.8494L12.4575 11.0002L7.6083 6.15105C7.47958 6.02339 7.3916 5.86042 7.3555 5.68276C7.3194 5.50509 7.33679 5.32072 7.40547 5.15294C7.47415 4.98516 7.59104 4.84151 7.74136 4.74016C7.89168 4.63881 8.06867 4.58431 8.24996 4.58355Z" fill="#0C0D0D"/>
</svg>
